<svg xmlns="http://www.w3.org/2000/svg" width="320" height="100" viewBox="0 0 320 100">
  <rect x="0.5" y="0.5" width="319" height="99" fill="#ffffff" stroke="#e1e4e8" rx="3"/>
  <g fill="#888888">
    <rect x="20" y="65" width="8" height="15"/>
    <rect x="30" y="55" width="8" height="25"/>
    <rect x="40" y="40" width="8" height="40"/>
    <rect x="50" y="25" width="8" height="55"/>
    <rect x="60" y="30" width="8" height="50"/>
    <rect x="70" y="45" width="8" height="35"/>
    <rect x="80" y="60" width="8" height="20"/>
    <rect x="90" y="70" width="8" height="10"/>
    <rect x="100" y="73" width="8" height="7"/>
    <rect x="110" y="72" width="8" height="8"/>
    <rect x="120" y="70" width="8" height="10"/>
    <rect x="130" y="65" width="8" height="15"/>
    <rect x="140" y="55" width="8" height="25"/>
    <rect x="150" y="42" width="8" height="38"/>
    <rect x="160" y="30" width="8" height="50"/>
    <rect x="170" y="22" width="8" height="58"/>
    <rect x="180" y="25" width="8" height="55"/>
    <rect x="190" y="38" width="8" height="42"/>
    <rect x="200" y="52" width="8" height="28"/>
    <rect x="210" y="62" width="8" height="18"/>
    <rect x="220" y="68" width="8" height="12"/>
    <rect x="230" y="72" width="8" height="8"/>
    <rect x="240" y="75" width="8" height="5"/>
    <rect x="250" y="76" width="8" height="4"/>
    <rect x="260" y="75" width="8" height="5"/>
    <rect x="270" y="74" width="8" height="6"/>
    <rect x="280" y="73" width="8" height="7"/>
    <rect x="290" y="73" width="8" height="7"/>
  </g>
  <line x1="115" y1="10" x2="115" y2="80" stroke="#cf222e" stroke-width="2" stroke-dasharray="3,2"/>
  <text x="118" y="18" font-family="sans-serif" font-size="9" fill="#cf222e" font-weight="bold">Otsu threshold</text>
  <text x="40" y="95" font-family="sans-serif" font-size="9" fill="#888888">background peak</text>
  <text x="170" y="95" font-family="sans-serif" font-size="9" fill="#888888">signal peak</text>
</svg>
