<svg xmlns="http://www.w3.org/2000/svg" width="320" height="110" viewBox="0 0 320 110">
  <rect x="0.5" y="0.5" width="319" height="109" fill="#ffffff" stroke="#e1e4e8" rx="3"/>
  <text x="160" y="14" font-family="sans-serif" font-size="10" fill="#37474F" font-weight="bold" text-anchor="middle">Object size filter</text>
  <text x="20" y="30" font-family="sans-serif" font-size="9" fill="#888888">too small</text>
  <text x="155" y="30" font-family="sans-serif" font-size="9" fill="#1a7f37" font-weight="bold">keep</text>
  <text x="265" y="30" font-family="sans-serif" font-size="9" fill="#888888">too large</text>
  <line x1="20" y1="60" x2="300" y2="60" stroke="#d0d7de" stroke-width="1"/>
  <g fill="#cccccc" stroke="#999999" stroke-width="0.5">
    <circle cx="35" cy="60" r="3"/>
    <circle cx="55" cy="60" r="4"/>
    <circle cx="75" cy="60" r="3"/>
    <circle cx="95" cy="60" r="2"/>
  </g>
  <g fill="#56b4e9" stroke="#0072b2" stroke-width="1">
    <circle cx="125" cy="60" r="7"/>
    <circle cx="150" cy="60" r="9"/>
    <circle cx="180" cy="60" r="8"/>
    <circle cx="210" cy="60" r="10"/>
  </g>
  <g fill="#dddddd" stroke="#999999" stroke-width="0.5">
    <circle cx="250" cy="60" r="16"/>
    <circle cx="285" cy="60" r="14"/>
  </g>
  <line x1="110" y1="40" x2="110" y2="85" stroke="#cf6300" stroke-width="2" stroke-dasharray="3,2"/>
  <line x1="225" y1="40" x2="225" y2="85" stroke="#cf6300" stroke-width="2" stroke-dasharray="3,2"/>
  <text x="110" y="98" font-family="sans-serif" font-size="9" fill="#cf6300" font-weight="bold" text-anchor="middle">min</text>
  <text x="225" y="98" font-family="sans-serif" font-size="9" fill="#cf6300" font-weight="bold" text-anchor="middle">max</text>
</svg>
